HIERARCHY
ROOT hips
{
	OFFSET -0.003675 0.299928 -0.021708
	CHANNELS 6 Xposition Yposition Zposition Xrotation Yrotation Zrotation
	JOINT LowerBack
	{
		OFFSET 0.000919 0.177588 0.009275
		CHANNELS 3 Xrotation Yrotation Zrotation
		JOINT spine
		{
			OFFSET 0.000919 0.177588 0.009275
			CHANNELS 3 Xrotation Yrotation Zrotation
			JOINT chest
			{
				OFFSET 0.000456 0.100015 0.004638
				CHANNELS 3 Xrotation Yrotation Zrotation
				JOINT neck
				{
					OFFSET 0.000456 0.100015 0.004638
					CHANNELS 3 Xrotation Yrotation Zrotation
					JOINT head
					{
						OFFSET 0.000924 0.155147 0.009274
						CHANNELS 6 Xposition Yposition Zposition Xrotation Yrotation Zrotation
						End Site
						{
							OFFSET 0.000000 0.153400 0.000000
						}
					}
				}
				JOINT shoulder.L
				{
					OFFSET 0.019937 0.078966 0.057518
					CHANNELS 6 Xposition Yposition Zposition Yrotation Xrotation Zrotation
					JOINT upper_arm.L
					{
						OFFSET 0.177024 -0.020465 -0.095062
						CHANNELS 6 Xposition Yposition Zposition Xrotation Yrotation Zrotation
						JOINT forearm.L
						{
							OFFSET 0.247100 -0.135500 -0.061800
							CHANNELS 3 Xrotation Yrotation Zrotation
							JOINT hand.L
							{
								OFFSET 0.217000 -0.143000 0.039300
								CHANNELS 3 Xrotation Yrotation Zrotation
								JOINT palm.01.L
								{
									OFFSET 0.021770 -0.038291 0.012954
									CHANNELS 6 Xposition Yposition Zposition Yrotation Xrotation Zrotation
									JOINT f_index.01.L
									{
										OFFSET 0.053215 -0.044137 0.008236
										CHANNELS 3 Xrotation Yrotation Zrotation
										JOINT f_index.02.L
										{
											OFFSET 0.036108 -0.024723 -0.010656
											CHANNELS 3 Xrotation Yrotation Zrotation
											JOINT f_index.03.L
											{
												OFFSET 0.021342 -0.014948 -0.010846
												CHANNELS 3 Xrotation Yrotation Zrotation
												End Site
												{
													OFFSET 0.015600 -0.009860 -0.013421
												}
											}
										}
									}
									JOINT thumb.01.L
									{
										OFFSET -0.009090 -0.002348 -0.024223
										CHANNELS 6 Xposition Yposition Zposition Xrotation Yrotation Zrotation
										JOINT thumb.02.L
										{
											OFFSET 0.019713 -0.035076 -0.011120
											CHANNELS 3 Xrotation Yrotation Zrotation
											JOINT thumb.03.L
											{
												OFFSET 0.024877 -0.021748 -0.005176
												CHANNELS 3 Xrotation Yrotation Zrotation
												End Site
												{
													OFFSET 0.016125 -0.013029 -0.001569
												}
											}
										}
									}
								}
								JOINT palm.02.L
								{
									OFFSET 0.032823 -0.025104 0.012281
									CHANNELS 6 Xposition Yposition Zposition Yrotation Xrotation Zrotation
									JOINT f_middle.01.L
									{
										OFFSET 0.055723 -0.038469 0.008037
										CHANNELS 3 Xrotation Yrotation Zrotation
										JOINT f_middle.02.L
										{
											OFFSET 0.038167 -0.027473 -0.015582
											CHANNELS 3 Xrotation Yrotation Zrotation
											JOINT f_middle.03.L
											{
												OFFSET 0.021707 -0.016587 -0.017037
												CHANNELS 3 Xrotation Yrotation Zrotation
												End Site
												{
													OFFSET 0.014112 -0.010584 -0.014294
												}
											}
										}
									}
								}
								JOINT palm.03.L
								{
									OFFSET 0.039230 -0.011402 0.008390
									CHANNELS 6 Xposition Yposition Zposition Yrotation Xrotation Zrotation
									JOINT f_ring.01.L
									{
										OFFSET 0.061796 -0.031470 0.007910
										CHANNELS 3 Xrotation Yrotation Zrotation
										JOINT f_ring.02.L
										{
											OFFSET 0.033092 -0.023401 -0.019127
											CHANNELS 3 Xrotation Yrotation Zrotation
											JOINT f_ring.03.L
											{
												OFFSET 0.021392 -0.015362 -0.017824
												CHANNELS 3 Xrotation Yrotation Zrotation
												End Site
												{
													OFFSET 0.008670 -0.007297 -0.014686
												}
											}
										}
									}
								}
								JOINT palm.04.L
								{
									OFFSET 0.043417 0.002450 0.002889
									CHANNELS 6 Xposition Yposition Zposition Yrotation Xrotation Zrotation
									JOINT f_pinky.01.L
									{
										OFFSET 0.069986 -0.026156 0.003627
										CHANNELS 3 Xrotation Yrotation Zrotation
										JOINT f_pinky.02.L
										{
											OFFSET 0.018520 -0.012813 -0.016429
											CHANNELS 3 Xrotation Yrotation Zrotation
											JOINT f_pinky.03.L
											{
												OFFSET 0.013822 -0.009796 -0.014947
												CHANNELS 3 Xrotation Yrotation Zrotation
												End Site
												{
													OFFSET 0.007238 -0.006103 -0.011657
												}
											}
										}
									}
								}
							}
						}
					}
				}
				JOINT shoulder.R
				{
					OFFSET -0.016662 0.078957 0.057696
					CHANNELS 6 Xposition Yposition Zposition Yrotation Xrotation Zrotation
					JOINT upper_arm.R
					{
						OFFSET -0.176972 -0.020537 -0.095144
						CHANNELS 6 Xposition Yposition Zposition Xrotation Yrotation Zrotation
						JOINT forearm.R
						{
							OFFSET -0.247100 -0.135500 -0.061800
							CHANNELS 3 Xrotation Yrotation Zrotation
							JOINT hand.R
							{
								OFFSET -0.217000 -0.143000 0.039300
								CHANNELS 3 Xrotation Yrotation Zrotation
								JOINT palm.01.R
								{
									OFFSET -0.021773 -0.038278 0.012988
									CHANNELS 6 Xposition Yposition Zposition Yrotation Xrotation Zrotation
									JOINT f_index.01.R
									{
										OFFSET -0.053212 -0.044139 0.008249
										CHANNELS 3 Xrotation Yrotation Zrotation
										JOINT f_index.02.R
										{
											OFFSET -0.036049 -0.024835 -0.010634
											CHANNELS 3 Xrotation Yrotation Zrotation
											JOINT f_index.03.R
											{
												OFFSET -0.021371 -0.014881 -0.010866
												CHANNELS 3 Xrotation Yrotation Zrotation
												End Site
												{
													OFFSET -0.015584 -0.009883 -0.013422
												}
											}
										}
									}
									JOINT thumb.01.R
									{
										OFFSET 0.009113 -0.002381 -0.024211
										CHANNELS 6 Xposition Yposition Zposition Xrotation Yrotation Zrotation
										JOINT thumb.02.R
										{
											OFFSET -0.019694 -0.035097 -0.011088
											CHANNELS 3 Xrotation Yrotation Zrotation
											JOINT thumb.03.R
											{
												OFFSET -0.024867 -0.021762 -0.005168
												CHANNELS 3 Xrotation Yrotation Zrotation
												End Site
												{
													OFFSET -0.016120 -0.013036 -0.001565
												}
											}
										}
									}
								}
								JOINT palm.02.R
								{
									OFFSET -0.032828 -0.025095 0.012286
									CHANNELS 6 Xposition Yposition Zposition Yrotation Xrotation Zrotation
									JOINT f_middle.01.R
									{
										OFFSET -0.055721 -0.038472 0.008040
										CHANNELS 3 Xrotation Yrotation Zrotation
										JOINT f_middle.02.R
										{
											OFFSET -0.038101 -0.027593 -0.015557
											CHANNELS 3 Xrotation Yrotation Zrotation
											JOINT f_middle.03.R
											{
												OFFSET -0.021730 -0.016530 -0.017054
												CHANNELS 3 Xrotation Yrotation Zrotation
												End Site
												{
													OFFSET -0.014096 -0.010608 -0.014293
												}
											}
										}
									}
								}
								JOINT palm.03.R
								{
									OFFSET -0.039192 -0.011488 0.008390
									CHANNELS 6 Xposition Yposition Zposition Yrotation Xrotation Zrotation
									JOINT f_ring.01.R
									{
										OFFSET -0.061839 -0.031387 0.007876
										CHANNELS 3 Xrotation Yrotation Zrotation
										JOINT f_ring.02.R
										{
											OFFSET -0.033068 -0.023437 -0.019125
											CHANNELS 3 Xrotation Yrotation Zrotation
											JOINT f_ring.03.R
											{
												OFFSET -0.021371 -0.015393 -0.017822
												CHANNELS 3 Xrotation Yrotation Zrotation
												End Site
												{
													OFFSET -0.008654 -0.007321 -0.014684
												}
											}
										}
									}
								}
								JOINT palm.04.R
								{
									OFFSET -0.043421 0.002443 0.002845
									CHANNELS 6 Xposition Yposition Zposition Yrotation Xrotation Zrotation
									JOINT f_pinky.01.R
									{
										OFFSET -0.069983 -0.026169 0.003599
										CHANNELS 3 Xrotation Yrotation Zrotation
										JOINT f_pinky.02.R
										{
											OFFSET -0.018501 -0.012842 -0.016428
											CHANNELS 3 Xrotation Yrotation Zrotation
											JOINT f_pinky.03.R
											{
												OFFSET -0.013806 -0.009821 -0.014946
												CHANNELS 3 Xrotation Yrotation Zrotation
												End Site
												{
													OFFSET -0.007226 -0.006121 -0.011655
												}
											}
										}
									}
								}
							}
						}
					}
				}
			}
		}
	}
	JOINT pelvis.L
	{
		OFFSET 0.000000 0.000000 0.000000
		CHANNELS 6 Xposition Yposition Zposition Xrotation Yrotation Zrotation
		JOINT thigh.L
		{
			OFFSET 0.101675 0.001054 -0.000000
			CHANNELS 3 Xrotation Yrotation Zrotation
			JOINT shin.L
			{
				OFFSET 0.000000 -0.534800 0.041000
				CHANNELS 3 Xrotation Yrotation Zrotation
				JOINT foot.L
				{
					OFFSET 0.000000 -0.452000 -0.044800
					CHANNELS 3 Xrotation Yrotation Zrotation
					JOINT toe.L
					{
						OFFSET -0.000000 -0.068500 0.109600
						CHANNELS 3 Xrotation Yrotation Zrotation
						End Site
						{
							OFFSET -0.000000 0.000000 0.067200
						}
					}
				}
				JOINT heel.L
				{
					OFFSET 0.000000 -0.452000 -0.044800
					CHANNELS 3 Xrotation Yrotation Zrotation
					JOINT heel.02.L
					{
						OFFSET -0.038000 -0.085200 0.016200
						CHANNELS 6 Xposition Yposition Zposition Xrotation Yrotation Zrotation
						End Site
						{
							OFFSET 0.080000 -0.000000 0.000000
						}
					}
				}
			}
		}
	}
	JOINT pelvis.R
	{
		OFFSET 0.000000 0.000000 0.000000
		CHANNELS 6 Xposition Yposition Zposition Xrotation Yrotation Zrotation
		JOINT thigh.R
		{
			OFFSET -0.094325 0.001054 0.000000
			CHANNELS 3 Xrotation Yrotation Zrotation
			JOINT shin.R
			{
				OFFSET 0.000000 -0.534800 0.041000
				CHANNELS 3 Xrotation Yrotation Zrotation
				JOINT foot.R
				{
					OFFSET 0.000000 -0.452000 -0.044800
					CHANNELS 3 Xrotation Yrotation Zrotation
					JOINT toe.R
					{
						OFFSET -0.000000 -0.068500 0.109600
						CHANNELS 3 Xrotation Yrotation Zrotation
						End Site
						{
							OFFSET -0.000000 0.000000 0.067200
						}
					}
				}
				JOINT heel.R
				{
					OFFSET 0.000000 -0.452000 -0.044800
					CHANNELS 3 Xrotation Yrotation Zrotation
					JOINT heel.02.R
					{
						OFFSET 0.038000 -0.085200 0.016200
						CHANNELS 6 Xposition Yposition Zposition Xrotation Yrotation Zrotation
						End Site
						{
							OFFSET -0.080000 0.000000 -0.000000
						}
					}
				}
			}
		}
	}
}
MOTION
Frames: 4
Frame Time: 0.041667
-0.022200 0.212456 -0.020608 -41.294323 -2.188351 71.869641 0.000000 0.000002 0.000001 -0.000000 0.000000 0.000001 -0.000001 -0.000000 0.000000 0.000000 0.000001 -0.000002 0.000924 0.155148 0.009274 2.049392 -0.000734 -7.758432 0.019937 0.078966 0.057518 -13.825430 0.914518 38.596743 0.177025 -0.020465 -0.095062 -11.041513 14.500251 -60.204347 -2.117427 -3.413489 -16.077302 -0.000003 0.000002 -0.000003 0.021770 -0.038291 0.012954 -0.000004 -0.000001 -0.000002 -0.000002 -0.000001 0.000001 0.000002 0.000003 0.000005 -0.000001 -0.000001 0.000001 -0.009090 -0.002348 -0.024224 -0.000003 -0.000000 0.000003 -0.000006 0.000000 0.000003 0.000001 0.000003 -0.000004 0.032823 -0.025104 0.012281 -0.000002 0.000006 -0.000001 0.000002 0.000003 -0.000003 -0.000003 -0.000001 -0.000000 0.000003 -0.000001 -0.000001 0.039230 -0.011402 0.008390 -0.000004 -0.000000 0.000004 0.000002 0.000000 -0.000000 -0.000002 0.000004 0.000005 0.000003 -0.000002 0.000003 0.043417 0.002450 0.002889 -0.000003 0.000004 -0.000004 -0.000001 -0.000001 -0.000000 0.000000 0.000003 -0.000005 -0.000002 0.000002 -0.000003 -0.016662 0.078957 0.057696 -18.579638 2.191954 -25.261388 -0.176972 -0.020537 -0.095144 -6.455403 -12.592326 62.298340 11.001644 -8.545402 14.621417 0.000001 0.000003 0.000002 -0.021773 -0.038278 0.012988 0.000001 0.000001 -0.000005 -0.000001 0.000002 0.000001 -0.000000 -0.000000 0.000001 -0.000001 0.000000 -0.000001 0.009114 -0.002381 -0.024211 0.000001 -0.000001 0.000001 -0.000001 -0.000001 0.000004 0.000000 0.000000 -0.000003 -0.032828 -0.025095 0.012286 -0.000000 0.000001 -0.000010 0.000002 0.000003 0.000002 0.000001 -0.000002 -0.000004 -0.000003 0.000006 -0.000003 -0.039192 -0.011488 0.008390 -0.000001 0.000003 -0.000002 -0.000000 0.000007 0.000000 0.000001 0.000000 -0.000000 -0.000005 -0.000002 -0.000003 -0.043421 0.002443 0.002845 0.000000 0.000002 -0.000005 -0.000003 0.000004 -0.000002 -0.000004 -0.000003 -0.000003 0.000001 0.000003 -0.000001 0.000000 0.000000 0.000000 -2.370893 0.112686 -2.151972 -15.708634 0.270716 4.799587 2.054059 -1.432368 14.614296 -0.000002 -0.000002 -0.000001 0.000001 0.000007 0.000002 0.000000 -0.000002 -0.000000 -0.038000 -0.085200 0.016200 0.000003 0.000002 0.000000 -0.000000 0.000000 0.000000 -2.315884 0.111193 -0.917896 -18.480708 0.046414 -1.112764 -5.245620 0.445778 -4.502091 -0.000003 0.000003 0.000004 0.000003 0.000000 0.000001 0.000000 0.000001 0.000005 0.038000 -0.085200 0.016200 0.000001 -0.000004 -0.000000 
-0.022798 0.212584 -0.020121 -40.782721 -1.575311 70.037340 -0.000002 -0.000002 0.000001 -0.000000 -0.000002 -0.000001 -0.000001 -0.000004 -0.000001 -0.000001 -0.000002 -0.000002 0.000924 0.155148 0.009274 -1.996549 0.012175 -5.551978 0.019937 0.078966 0.057518 -11.108478 0.028803 35.395434 0.177024 -0.020465 -0.095062 -13.735424 13.879103 -56.001284 -5.018476 -6.154690 -11.580358 -0.000001 -0.000002 0.000000 0.021770 -0.038291 0.012954 0.000005 0.000001 -0.000002 -0.000005 -0.000002 -0.000002 0.000003 -0.000002 0.000010 -0.000000 0.000002 0.000002 -0.009090 -0.002348 -0.024223 0.000002 0.000001 0.000003 -0.000000 -0.000000 0.000001 -0.000000 -0.000001 -0.000002 0.032823 -0.025104 0.012281 0.000004 0.000002 0.000005 -0.000001 -0.000003 -0.000007 -0.000003 -0.000002 0.000003 0.000001 -0.000003 0.000003 0.039230 -0.011402 0.008390 0.000005 -0.000000 0.000004 0.000005 -0.000000 -0.000000 0.000003 0.000001 0.000001 0.000003 -0.000005 0.000003 0.043417 0.002450 0.002889 0.000000 0.000003 -0.000004 -0.000001 -0.000001 -0.000000 -0.000000 0.000001 0.000001 0.000002 0.000000 -0.000002 -0.016662 0.078956 0.057696 -15.375111 1.660458 -26.497272 -0.176972 -0.020537 -0.095144 -6.719112 -12.582222 59.007705 8.508584 -2.890669 23.601597 0.000004 0.000002 0.000003 -0.021773 -0.038278 0.012988 -0.000000 -0.000004 0.000000 0.000001 -0.000000 0.000000 -0.000003 -0.000002 -0.000006 -0.000000 -0.000002 -0.000001 0.009114 -0.002381 -0.024212 0.000003 -0.000002 -0.000003 0.000000 -0.000002 -0.000005 0.000002 0.000001 -0.000003 -0.032828 -0.025095 0.012286 0.000002 -0.000000 -0.000001 -0.000000 0.000003 0.000001 0.000001 0.000001 0.000001 -0.000001 0.000003 -0.000002 -0.039192 -0.011488 0.008390 0.000001 -0.000001 0.000001 0.000000 0.000003 -0.000002 -0.000003 -0.000001 0.000002 -0.000000 0.000002 -0.000003 -0.043421 0.002443 0.002845 0.000001 -0.000001 -0.000001 -0.000001 0.000002 -0.000002 -0.000002 -0.000002 -0.000002 -0.000001 0.000000 -0.000003 -0.000000 0.000000 0.000000 -2.367405 -0.107547 0.195219 -14.061379 0.239930 4.302848 2.719046 -1.322609 13.472173 -0.000002 -0.000000 0.000000 0.000000 -0.000002 -0.000001 0.000003 -0.000002 -0.000001 -0.038000 -0.085200 0.016200 -0.000001 -0.000000 -0.000000 -0.000000 0.000000 0.000000 -2.320688 -0.106905 1.429495 -18.664489 -0.009771 -1.861250 -6.748983 0.372330 -3.759112 -0.000003 -0.000000 0.000001 0.000000 -0.000001 0.000001 0.000009 0.000002 0.000001 0.038000 -0.085200 0.016200 -0.000002 -0.000002 -0.000001 
-0.020088 0.207447 -0.013967 -17.730737 -5.966941 83.148688 -0.000001 -0.000000 -0.000000 0.000000 0.000001 -0.000000 0.000001 0.000001 0.000000 0.000000 0.000001 0.000000 0.000924 0.155147 0.009274 -0.876471 0.009920 -1.816313 0.019937 0.078966 0.057518 -5.537966 3.332716 45.848273 0.177024 -0.020465 -0.095062 -23.298465 -5.003287 -17.934463 4.712575 9.003452 7.335298 -0.000003 -0.000000 -0.000004 0.021770 -0.038291 0.012954 0.000000 -0.000003 -0.000000 -0.000004 0.000001 -0.000000 0.000000 -0.000000 0.000003 -0.000003 0.000000 0.000003 -0.009090 -0.002348 -0.024224 -0.000002 0.000000 -0.000004 0.000002 -0.000000 -0.000001 -0.000002 0.000000 0.000003 0.032823 -0.025104 0.012281 -0.000001 -0.000002 0.000004 -0.000002 0.000003 0.000000 -0.000001 -0.000005 0.000003 -0.000000 0.000003 -0.000005 0.039230 -0.011402 0.008390 0.000000 -0.000001 0.000004 0.000000 0.000002 -0.000002 -0.000001 0.000007 0.000003 0.000003 -0.000002 0.000003 0.043417 0.002450 0.002889 0.000001 -0.000003 -0.000002 -0.000005 -0.000003 0.000001 0.000001 -0.000004 0.000002 -0.000004 -0.000002 -0.000000 -0.016662 0.078956 0.057696 -20.239285 5.706300 -37.308740 -0.176972 -0.020537 -0.095144 -8.984508 37.526726 -18.518070 4.055194 -3.872865 -68.125598 -0.000001 0.000001 0.000000 -0.021773 -0.038278 0.012988 -0.000000 0.000000 -0.000002 -0.000003 -0.000002 -0.000001 0.000000 0.000001 -0.000004 -0.000003 0.000002 0.000003 0.009114 -0.002381 -0.024212 0.000001 -0.000006 -0.000002 0.000002 -0.000002 0.000004 0.000002 0.000001 -0.000003 -0.032828 -0.025095 0.012286 0.000005 0.000002 -0.000003 0.000002 0.000001 -0.000003 0.000006 0.000000 0.000001 0.000003 0.000003 -0.000002 -0.039192 -0.011488 0.008390 0.000000 0.000001 -0.000000 -0.000002 0.000002 -0.000005 0.000001 0.000000 0.000002 -0.000005 -0.000001 0.000001 -0.043421 0.002443 0.002844 0.000002 0.000002 0.000000 -0.000003 0.000006 -0.000002 -0.000000 0.000005 -0.000002 -0.000003 -0.000006 0.000004 0.000000 0.000000 -0.000000 -2.300210 0.259967 -3.760765 6.500074 0.693117 8.988552 21.358992 -1.487784 15.193274 0.000000 -0.000000 -0.000001 -0.000006 -0.000002 0.000000 -0.000002 -0.000002 -0.000000 -0.038000 -0.085200 0.016200 -0.000000 0.000001 -0.000001 0.000000 0.000000 -0.000000 -2.241303 0.256706 -2.526851 -21.194649 0.125477 -0.254961 17.989581 0.266026 -2.684608 0.000000 -0.000000 -0.000001 -0.000001 -0.000001 0.000001 0.000003 -0.000001 0.000002 0.038000 -0.085200 0.016200 -0.000001 -0.000000 0.000001 
-0.019648 0.205858 -0.010729 -21.494223 -4.228454 84.885427 -0.000001 0.000001 -0.000000 -0.000000 -0.000002 0.000000 -0.000000 0.000001 -0.000000 0.000000 0.000002 -0.000000 0.000924 0.155148 0.009274 -1.702264 0.012507 0.169055 0.019937 0.078966 0.057518 -7.351460 3.987064 50.068405 0.177024 -0.020465 -0.095062 -21.952879 -10.681302 -9.843897 4.113551 9.158549 11.193815 0.000001 -0.000001 0.000005 0.021770 -0.038291 0.012954 0.000001 -0.000000 -0.000002 -0.000002 -0.000000 0.000001 -0.000003 0.000001 0.000005 -0.000000 -0.000000 -0.000006 -0.009090 -0.002348 -0.024224 -0.000002 0.000000 -0.000002 0.000002 0.000000 0.000006 -0.000002 0.000000 0.000001 0.032823 -0.025104 0.012281 0.000000 0.000002 0.000005 -0.000001 0.000001 -0.000003 -0.000001 -0.000003 0.000001 -0.000001 -0.000001 -0.000003 0.039230 -0.011402 0.008390 0.000001 0.000000 0.000003 -0.000002 0.000001 -0.000005 -0.000001 -0.000001 0.000001 0.000003 -0.000003 0.000001 0.043417 0.002450 0.002889 0.000001 -0.000000 -0.000003 -0.000003 -0.000001 -0.000002 0.000002 -0.000003 -0.000006 -0.000002 0.000000 0.000005 -0.016662 0.078957 0.057696 -25.223798 6.769424 -36.109260 -0.176972 -0.020537 -0.095144 -0.928469 32.300269 -26.431669 -1.966513 -13.632521 -66.189902 -0.000002 0.000002 0.000002 -0.021773 -0.038278 0.012988 0.000002 -0.000001 -0.000003 -0.000001 0.000001 0.000001 -0.000004 -0.000000 -0.000003 -0.000002 0.000002 0.000003 0.009114 -0.002381 -0.024211 0.000002 -0.000002 0.000002 -0.000004 -0.000003 -0.000005 -0.000000 -0.000001 -0.000004 -0.032828 -0.025095 0.012286 0.000001 -0.000001 -0.000003 -0.000001 0.000002 -0.000004 -0.000000 0.000003 -0.000003 -0.000003 0.000004 -0.000007 -0.039192 -0.011488 0.008390 0.000001 0.000003 -0.000002 -0.000004 0.000002 -0.000003 0.000002 -0.000001 0.000002 0.000001 0.000003 -0.000004 -0.043421 0.002443 0.002845 0.000001 0.000000 0.000000 -0.000006 0.000000 -0.000001 -0.000004 -0.000003 0.000000 -0.000003 -0.000002 0.000001 -0.000000 0.000000 -0.000000 -2.317693 0.289421 -4.066223 9.256388 0.792599 10.139987 15.672308 -1.606713 16.441280 0.000002 -0.000001 0.000000 0.000001 0.000002 0.000003 0.000002 -0.000001 0.000001 -0.038000 -0.085200 0.016200 -0.000003 0.000001 0.000001 -0.000000 0.000000 -0.000000 -2.257278 0.285749 -2.832346 -18.302441 0.150688 0.299247 14.599639 0.167339 -1.688262 0.000000 0.000002 -0.000001 0.000001 0.000000 -0.000001 0.000002 0.000002 -0.000001 0.038000 -0.085200 0.016200 -0.000003 0.000003 0.000001 
